<svg width="168" height="32" viewBox="0 0 168 32" fill="none" xmlns="http://www.w3.org/2000/svg">
<g clip-path="url(#clip0_2625_16199)">
<rect width="32" height="32" rx="2.00182" fill="url(#paint0_linear_2625_16199)"/>
<path d="M6.68506 25.3837H22.7245V32.063H6.68506V25.3837Z" fill="white"/>
<path d="M20.3902 26.7242H24.0418V32.063H20.3902V26.7242Z" fill="white"/>
<path d="M21.7307 28.0647H25.3823V32.063H21.7307V28.0647Z" fill="white"/>
<path d="M9.13488 14.7062H13.3643V26.7242H9.13488V14.7062Z" fill="white"/>
<path d="M17.3699 13.3657H21.384V17.364L17.3699 17.3247V13.3657Z" fill="white"/>
<path d="M14.7048 17.364H18.9342V20.045H14.7048V17.364Z" fill="white"/>
<path d="M16.0221 16.0236H20.2515V18.7045H16.0221V16.0236Z" fill="white"/>
<path d="M8.02553 24.0664H12.2549V30.7456H8.02553V24.0664Z" fill="white"/>
<path d="M8.02553 14.6831H12.2549V18.7045H8.02553V14.6831Z" fill="white"/>
<path d="M13.3643 18.4272H17.3626V26.4237H13.3643V18.4272Z" fill="white"/>
<path d="M13.3643 23.7659H20.0435V28.3189H13.3643V23.7659Z" fill="white"/>
<path d="M26.722 28.0632H25.3892V32.0705H26.722V28.0632Z" fill="black"/>
<path d="M25.3904 26.7303H24.0488V28.0632H25.3904V26.7303Z" fill="black"/>
<path d="M24.0477 28.0632H22.7148V29.3961H24.0477V28.0632Z" fill="black"/>
<path d="M24.0477 25.3887H22.7148V26.7303H24.0477V25.3887Z" fill="black"/>
<path d="M22.7166 29.3961H21.375V30.7377H22.7166V29.3961Z" fill="black"/>
<path d="M22.716 24.056H20.0415V25.3889H22.716V24.056Z" fill="black"/>
<path d="M22.7166 13.3667H21.375V17.374H22.7166V13.3667Z" fill="black"/>
<path d="M21.3744 30.7377H20.0415V32.0705H21.3744V30.7377Z" fill="black"/>
<path d="M21.3744 17.374H20.0415V18.7069H21.3744V17.374Z" fill="black"/>
<path d="M21.3742 12.0251H18.7085V13.3668H21.3742V12.0251Z" fill="black"/>
<path d="M20.0413 25.3887H18.7085V26.7303H20.0413V25.3887Z" fill="black"/>
<path d="M20.0416 22.7144H17.3672V24.056H20.0416V22.7144Z" fill="black"/>
<path d="M20.0413 18.7069H18.7085V20.0485H20.0413V18.7069Z" fill="black"/>
<path d="M18.7088 26.7303H17.3672V28.0632H18.7088V26.7303Z" fill="black"/>
<path d="M18.7088 20.0485H17.3672V21.3813H18.7088V20.0485Z" fill="black"/>
<path d="M18.7088 13.3667H17.3672V14.6995H18.7088V13.3667Z" fill="black"/>
<path d="M17.367 28.0632H16.0342V29.3961H17.367V28.0632Z" fill="black"/>
<path d="M17.367 21.3813H16.0342V22.7142H17.367V21.3813Z" fill="black"/>
<path d="M17.367 14.6997H16.0342V16.0326H17.367V14.6997Z" fill="black"/>
<path d="M16.0345 22.7144H14.7017V24.056H16.0345V22.7144Z" fill="black"/>
<path d="M16.0345 16.0325H14.7017V17.3741H16.0345V16.0325Z" fill="black"/>
<path d="M14.7015 24.056H13.3599V25.3889H14.7015V24.056Z" fill="black"/>
<path d="M14.7015 17.374H13.3599V18.7069H14.7015V17.374Z" fill="black"/>
<path d="M13.3602 18.7069H12.0273V20.0485H13.3602V18.7069Z" fill="black"/>
<path d="M13.3602 14.6997H12.0273V17.3742H13.3602V14.6997Z" fill="black"/>
<path d="M12.0272 20.0485H10.6855V21.3813H12.0272V20.0485Z" fill="black"/>
<path d="M12.0273 13.3667H8.02002V14.6995H12.0273V13.3667Z" fill="black"/>
<path d="M9.35287 18.7069H8.02002V24.0558H9.35287V22.7142H10.6857V21.3814H9.35287V18.7069Z" fill="black"/>
<path d="M8.02033 24.056H6.67871V25.3889H8.02033V24.056Z" fill="black"/>
<path d="M8.02033 14.6997H6.67871V18.707H8.02033V14.6997Z" fill="black"/>
<path d="M6.67806 25.3887H5.34521V32.0705H6.67806V25.3887Z" fill="black"/>
<rect x="10.689" y="8.01685" width="1.33613" height="1.33613" fill="black"/>
<rect x="12.0249" y="9.35278" width="1.33613" height="1.33613" fill="black"/>
<rect x="13.3618" y="10.6891" width="1.33613" height="1.33613" fill="black"/>
<rect x="16.0337" y="10.6891" width="1.33613" height="1.33613" fill="black"/>
<rect x="17.3696" y="9.35278" width="1.33613" height="1.33613" fill="black"/>
<rect x="18.7065" y="8.01685" width="1.33613" height="1.33613" fill="black"/>
<rect x="14.6978" y="8.01685" width="1.33613" height="1.33613" fill="black"/>
<rect x="14.6978" y="6.68066" width="1.33613" height="1.33613" fill="black"/>
<rect x="14.6978" y="4.0083" width="1.33613" height="1.33613" fill="black"/>
</g>
<path d="M45.4526 22H50.1675C51.3628 22 52.3783 21.7648 53.2139 21.2944C54.0495 20.8185 54.6859 20.1296 55.123 19.2275C55.5658 18.3255 55.7871 17.2298 55.7871 15.9404V15.9238C55.7871 14.6732 55.5658 13.6079 55.123 12.728C54.6803 11.8481 54.0412 11.1785 53.2056 10.7192C52.37 10.2544 51.3573 10.022 50.1675 10.022H45.4526V22ZM47.9595 19.9331V12.0889H49.769C50.494 12.0889 51.1138 12.241 51.6284 12.5454C52.1486 12.8442 52.5443 13.2842 52.8154 13.8652C53.0921 14.4408 53.2305 15.1408 53.2305 15.9653V15.9819C53.2305 16.8286 53.0949 17.548 52.8237 18.1401C52.5581 18.7267 52.168 19.1722 51.6533 19.4766C51.1387 19.7809 50.5106 19.9331 49.769 19.9331H47.9595Z" fill="white"/>
<path d="M61.5213 22.1909C62.1909 22.1909 62.7692 22.1079 63.2562 21.9419C63.7487 21.7703 64.1582 21.549 64.4847 21.2778C64.8167 21.0067 65.0768 20.7161 65.2649 20.4062C65.4531 20.0908 65.5831 19.7892 65.6551 19.5015L65.6717 19.4185H63.4139L63.389 19.4683C63.3336 19.5845 63.2285 19.7145 63.0735 19.8584C62.9241 19.9967 62.7249 20.1185 62.4759 20.2236C62.2269 20.3288 61.9253 20.3813 61.5711 20.3813C61.1339 20.3813 60.7576 20.2845 60.4422 20.0908C60.1268 19.8971 59.8833 19.6177 59.7117 19.2524C59.5402 18.8872 59.4544 18.4473 59.4544 17.9326V16.9531C59.4544 16.4219 59.5402 15.9736 59.7117 15.6084C59.8888 15.2376 60.1268 14.9582 60.4256 14.77C60.7299 14.5763 61.0758 14.4795 61.4632 14.4795C61.8561 14.4795 62.1992 14.5736 62.4925 14.7617C62.7913 14.9443 63.0237 15.2183 63.1897 15.5835C63.3613 15.9487 63.4471 16.4053 63.4471 16.9531V17.9243L64.5843 16.4883H58.2674V18.0073H65.7464V17.252C65.7464 16.3278 65.5721 15.5226 65.2234 14.8364C64.8748 14.1502 64.3768 13.6162 63.7293 13.2344C63.0818 12.8525 62.3126 12.6616 61.4217 12.6616C60.5363 12.6616 59.7643 12.8581 59.1058 13.251C58.4528 13.6439 57.9464 14.1973 57.5867 14.9111C57.2326 15.625 57.0555 16.4661 57.0555 17.4346V17.4429C57.0555 18.4224 57.2353 19.2663 57.595 19.9746C57.9547 20.6829 58.4666 21.2308 59.1307 21.6182C59.8003 22 60.5971 22.1909 61.5213 22.1909Z" fill="white"/>
<path d="M70.941 22.1909C71.7213 22.1909 72.413 22.0692 73.0162 21.8257C73.6194 21.5767 74.0925 21.228 74.4356 20.7798C74.7787 20.3315 74.9503 19.8058 74.9503 19.2026V19.1943C74.9503 18.5192 74.7317 17.9824 74.2945 17.584C73.8574 17.1855 73.1822 16.8867 72.2691 16.6875L70.7501 16.3638C70.2797 16.2642 69.9477 16.1369 69.754 15.9819C69.5603 15.827 69.4635 15.6278 69.4635 15.3843V15.376C69.4635 15.1712 69.5243 14.9941 69.6461 14.8447C69.7734 14.6953 69.9449 14.5791 70.1607 14.4961C70.3766 14.4131 70.6228 14.3716 70.8995 14.3716C71.3533 14.3716 71.713 14.4684 71.9786 14.6621C72.2442 14.8503 72.4103 15.0688 72.4767 15.3179L72.485 15.3594H74.7345V15.3262C74.7013 14.8337 74.5325 14.3882 74.2281 13.9897C73.9293 13.5858 73.5004 13.2648 72.9415 13.0269C72.3826 12.7834 71.7047 12.6616 70.9078 12.6616C70.1497 12.6616 69.4828 12.7806 68.9073 13.0186C68.3373 13.2565 67.8919 13.5913 67.5709 14.0229C67.2555 14.4491 67.0978 14.9499 67.0978 15.5254V15.5337C67.0978 16.2144 67.3136 16.7705 67.7452 17.2021C68.1824 17.6338 68.8354 17.9437 69.7042 18.1318L71.2315 18.4556C71.6964 18.5607 72.0284 18.6935 72.2276 18.854C72.4269 19.0145 72.5265 19.2165 72.5265 19.46V19.4766C72.5265 19.6758 72.4601 19.8501 72.3272 19.9995C72.1944 20.1489 72.0118 20.2679 71.7794 20.3564C71.547 20.4395 71.2758 20.481 70.9659 20.481C70.49 20.481 70.1109 20.3896 69.8287 20.207C69.552 20.0244 69.3639 19.792 69.2643 19.5098L69.2477 19.4766H66.8653L66.8736 19.5098C66.929 20.0299 67.1199 20.492 67.4464 20.896C67.7784 21.3 68.235 21.6182 68.816 21.8506C69.4026 22.0775 70.1109 22.1909 70.941 22.1909Z" fill="white"/>
<path d="M76.5258 22H78.9496V12.8608H76.5258V22ZM77.746 11.458C78.1223 11.458 78.4433 11.328 78.7089 11.0679C78.9745 10.8022 79.1073 10.484 79.1073 10.1133C79.1073 9.73698 78.9745 9.41878 78.7089 9.15869C78.4433 8.89307 78.1223 8.76025 77.746 8.76025C77.3752 8.76025 77.0543 8.89307 76.7831 9.15869C76.5119 9.41878 76.3764 9.73698 76.3764 10.1133C76.3764 10.484 76.5119 10.8022 76.7831 11.0679C77.0543 11.328 77.3752 11.458 77.746 11.458Z" fill="white"/>
<path d="M84.9992 25.2124C85.9234 25.2124 86.723 25.0685 87.3981 24.7808C88.0733 24.4985 88.5935 24.0946 88.9587 23.5688C89.3295 23.0487 89.5148 22.4316 89.5148 21.7178V12.8608H87.091V14.355H86.9748C86.8143 14.0119 86.6013 13.7186 86.3356 13.4751C86.07 13.2316 85.7601 13.0435 85.406 12.9106C85.0573 12.7778 84.6727 12.7114 84.2521 12.7114C83.4719 12.7114 82.7995 12.8996 82.2351 13.2759C81.6761 13.6522 81.2445 14.1779 80.9401 14.853C80.6413 15.5282 80.4919 16.314 80.4919 17.2104V17.2271C80.4919 18.0903 80.6413 18.8512 80.9401 19.5098C81.2445 20.1683 81.6734 20.6829 82.2268 21.0537C82.7857 21.4189 83.447 21.6016 84.2106 21.6016C84.6312 21.6016 85.0158 21.5462 85.3645 21.4355C85.7186 21.3193 86.0285 21.1506 86.2941 20.9292C86.5653 20.7078 86.7839 20.4367 86.9499 20.1157H87.0993V21.8174C87.0993 22.3486 86.9195 22.7581 86.5598 23.0459C86.2001 23.3392 85.6965 23.4858 85.049 23.4858C84.5122 23.4858 84.0861 23.4028 83.7707 23.2368C83.4608 23.0708 83.2727 22.855 83.2062 22.5894L83.1979 22.5562H80.799V22.5977C80.8654 23.1123 81.0702 23.5661 81.4133 23.959C81.7564 24.3574 82.2268 24.6646 82.8244 24.8804C83.4276 25.1017 84.1525 25.2124 84.9992 25.2124ZM85.0324 19.7422C84.5952 19.7422 84.2245 19.637 83.9201 19.4268C83.6158 19.2109 83.3806 18.9149 83.2146 18.5386C83.0541 18.1567 82.9738 17.7168 82.9738 17.2188V17.2021C82.9738 16.6986 83.0541 16.2586 83.2146 15.8823C83.3806 15.5005 83.6158 15.2044 83.9201 14.9941C84.2245 14.7839 84.5952 14.6787 85.0324 14.6787C85.4696 14.6787 85.8431 14.7839 86.153 14.9941C86.4629 15.2044 86.7009 15.5005 86.8669 15.8823C87.0384 16.2642 87.1242 16.7041 87.1242 17.2021V17.2188C87.1242 17.7223 87.0384 18.1623 86.8669 18.5386C86.7009 18.9149 86.4629 19.2109 86.153 19.4268C85.8431 19.637 85.4696 19.7422 85.0324 19.7422Z" fill="white"/>
<path d="M91.5137 22H93.9375V16.7124C93.9375 16.2974 94.0094 15.9377 94.1533 15.6333C94.3027 15.3289 94.5103 15.0938 94.7759 14.9277C95.047 14.7562 95.368 14.6704 95.7388 14.6704C96.3143 14.6704 96.7376 14.8364 97.0088 15.1685C97.2799 15.5005 97.4155 15.9902 97.4155 16.6377V22H99.8394V16.0898C99.8394 14.9941 99.571 14.1502 99.0342 13.5581C98.5029 12.9604 97.7282 12.6616 96.71 12.6616C96.057 12.6616 95.5091 12.8055 95.0664 13.0933C94.6237 13.381 94.2972 13.7739 94.0869 14.272H93.9375V12.8608H91.5137V22Z" fill="white"/>
<path d="M102.004 22H104.237V13.8486H105.474L103.092 10.354L107.474 22H109.043L113.434 10.354L111.044 13.8486H112.281V22H114.513V10.022H111.641L108.338 18.7876H108.188L104.876 10.022H102.004V22Z" fill="white"/>
<path d="M119.252 22.1411C119.65 22.1411 120.018 22.0885 120.356 21.9834C120.699 21.8727 120.997 21.7178 121.252 21.5186C121.512 21.3138 121.72 21.0703 121.875 20.7881H122.024V22H124.415V15.7578C124.415 15.1104 124.265 14.557 123.966 14.0977C123.673 13.6328 123.244 13.2786 122.68 13.0352C122.115 12.7861 121.429 12.6616 120.621 12.6616C119.858 12.6616 119.185 12.7723 118.604 12.9937C118.029 13.215 117.569 13.5249 117.226 13.9233C116.889 14.3218 116.687 14.7894 116.62 15.3262L116.612 15.4009H118.853L118.87 15.3677C118.964 15.0965 119.146 14.889 119.418 14.7451C119.694 14.5957 120.051 14.521 120.488 14.521C120.986 14.521 121.365 14.6289 121.626 14.8447C121.891 15.055 122.024 15.3594 122.024 15.7578V18.6714C122.024 18.9924 121.938 19.2829 121.767 19.543C121.595 19.7975 121.363 19.9995 121.069 20.1489C120.776 20.2983 120.441 20.373 120.065 20.373C119.644 20.373 119.301 20.2734 119.036 20.0742C118.77 19.875 118.637 19.6011 118.637 19.2524V19.2358C118.637 18.9038 118.765 18.641 119.019 18.4473C119.274 18.2536 119.661 18.1429 120.181 18.1152L123.219 17.916V16.4385L119.816 16.646C118.682 16.7124 117.807 16.9808 117.193 17.4512C116.579 17.916 116.272 18.5607 116.272 19.3853V19.4019C116.272 19.9552 116.399 20.4395 116.653 20.8545C116.908 21.264 117.259 21.5822 117.708 21.8091C118.161 22.0304 118.676 22.1411 119.252 22.1411Z" fill="white"/>
<path d="M130.381 22.1909C131.051 22.1909 131.629 22.1079 132.116 21.9419C132.609 21.7703 133.018 21.549 133.345 21.2778C133.677 21.0067 133.937 20.7161 134.125 20.4062C134.313 20.0908 134.443 19.7892 134.515 19.5015L134.532 19.4185H132.274L132.249 19.4683C132.194 19.5845 132.088 19.7145 131.933 19.8584C131.784 19.9967 131.585 20.1185 131.336 20.2236C131.087 20.3288 130.785 20.3813 130.431 20.3813C129.994 20.3813 129.618 20.2845 129.302 20.0908C128.987 19.8971 128.743 19.6177 128.572 19.2524C128.4 18.8872 128.314 18.4473 128.314 17.9326V16.9531C128.314 16.4219 128.4 15.9736 128.572 15.6084C128.749 15.2376 128.987 14.9582 129.286 14.77C129.59 14.5763 129.936 14.4795 130.323 14.4795C130.716 14.4795 131.059 14.5736 131.352 14.7617C131.651 14.9443 131.884 15.2183 132.05 15.5835C132.221 15.9487 132.307 16.4053 132.307 16.9531V17.9243L133.444 16.4883H127.127V18.0073H134.606V17.252C134.606 16.3278 134.432 15.5226 134.083 14.8364C133.735 14.1502 133.237 13.6162 132.589 13.2344C131.942 12.8525 131.173 12.6616 130.282 12.6616C129.396 12.6616 128.624 12.8581 127.966 13.251C127.313 13.6439 126.806 14.1973 126.447 14.9111C126.093 15.625 125.915 16.4661 125.915 17.4346V17.4429C125.915 18.4224 126.095 19.2663 126.455 19.9746C126.815 20.6829 127.327 21.2308 127.991 21.6182C128.66 22 129.457 22.1909 130.381 22.1909Z" fill="white"/>
<path d="M139.801 22.1909C140.581 22.1909 141.273 22.0692 141.876 21.8257C142.479 21.5767 142.953 21.228 143.296 20.7798C143.639 20.3315 143.81 19.8058 143.81 19.2026V19.1943C143.81 18.5192 143.592 17.9824 143.154 17.584C142.717 17.1855 142.042 16.8867 141.129 16.6875L139.61 16.3638C139.14 16.2642 138.808 16.1369 138.614 15.9819C138.42 15.827 138.323 15.6278 138.323 15.3843V15.376C138.323 15.1712 138.384 14.9941 138.506 14.8447C138.633 14.6953 138.805 14.5791 139.021 14.4961C139.237 14.4131 139.483 14.3716 139.759 14.3716C140.213 14.3716 140.573 14.4684 140.839 14.6621C141.104 14.8503 141.27 15.0688 141.337 15.3179L141.345 15.3594H143.594V15.3262C143.561 14.8337 143.392 14.3882 143.088 13.9897C142.789 13.5858 142.36 13.2648 141.801 13.0269C141.243 12.7834 140.565 12.6616 139.768 12.6616C139.01 12.6616 138.343 12.7806 137.767 13.0186C137.197 13.2565 136.752 13.5913 136.431 14.0229C136.115 14.4491 135.958 14.9499 135.958 15.5254V15.5337C135.958 16.2144 136.174 16.7705 136.605 17.2021C137.042 17.6338 137.695 17.9437 138.564 18.1318L140.092 18.4556C140.556 18.5607 140.888 18.6935 141.088 18.854C141.287 19.0145 141.386 19.2165 141.386 19.46V19.4766C141.386 19.6758 141.32 19.8501 141.187 19.9995C141.054 20.1489 140.872 20.2679 140.639 20.3564C140.407 20.4395 140.136 20.481 139.826 20.481C139.35 20.481 138.971 20.3896 138.689 20.207C138.412 20.0244 138.224 19.792 138.124 19.5098L138.108 19.4766H135.725L135.734 19.5098C135.789 20.0299 135.98 20.492 136.306 20.896C136.638 21.3 137.095 21.6182 137.676 21.8506C138.263 22.0775 138.971 22.1909 139.801 22.1909Z" fill="white"/>
<path d="M149.113 22.0332C149.351 22.0332 149.575 22.0221 149.785 22C149.995 21.9779 150.175 21.953 150.325 21.9253V20.124C150.208 20.1351 150.098 20.1462 149.993 20.1572C149.893 20.1628 149.766 20.1655 149.611 20.1655C149.201 20.1655 148.903 20.0715 148.714 19.8833C148.532 19.6896 148.44 19.388 148.44 18.9785V14.687H150.325V12.8608H148.44V10.6777H145.992V12.8608H144.581V14.687H145.992V19.5347C145.992 20.4201 146.235 21.0592 146.722 21.4521C147.209 21.8395 148.006 22.0332 149.113 22.0332Z" fill="white"/>
<path d="M151.917 22H154.341V16.8867C154.341 16.4551 154.432 16.0843 154.615 15.7744C154.797 15.4645 155.057 15.2266 155.395 15.0605C155.732 14.889 156.131 14.8032 156.59 14.8032C156.778 14.8032 156.964 14.8171 157.146 14.8447C157.334 14.8669 157.52 14.9001 157.702 14.9443V12.8276C157.581 12.7944 157.44 12.7668 157.279 12.7446C157.124 12.7225 156.964 12.7114 156.798 12.7114C156.206 12.7114 155.71 12.8498 155.312 13.1265C154.913 13.3976 154.639 13.7822 154.49 14.2803H154.341V12.8608H151.917V22Z" fill="white"/>
<path d="M162.756 22.1909C163.697 22.1909 164.502 22.0028 165.171 21.6265C165.847 21.2446 166.364 20.6995 166.724 19.9912C167.083 19.2773 167.263 18.4251 167.263 17.4346V17.418C167.263 16.4329 167.081 15.5863 166.715 14.8779C166.35 14.1641 165.83 13.6162 165.155 13.2344C164.485 12.8525 163.686 12.6616 162.756 12.6616C161.826 12.6616 161.024 12.8553 160.349 13.2427C159.679 13.6245 159.162 14.1696 158.796 14.8779C158.431 15.5863 158.249 16.4329 158.249 17.418V17.4346C158.249 18.4251 158.428 19.2773 158.788 19.9912C159.148 20.6995 159.665 21.2446 160.34 21.6265C161.016 22.0028 161.821 22.1909 162.756 22.1909ZM162.756 20.29C162.324 20.29 161.956 20.1794 161.652 19.958C161.353 19.7311 161.123 19.4046 160.963 18.9785C160.808 18.5524 160.731 18.0378 160.731 17.4346V17.418C160.731 16.8203 160.811 16.3112 160.971 15.8906C161.132 15.4645 161.361 15.138 161.66 14.9111C161.965 14.6787 162.33 14.5625 162.756 14.5625C163.182 14.5625 163.545 14.6787 163.843 14.9111C164.148 15.138 164.38 15.4645 164.541 15.8906C164.701 16.3112 164.781 16.8203 164.781 17.418V17.4346C164.781 18.0322 164.701 18.5441 164.541 18.9702C164.38 19.3963 164.15 19.7228 163.852 19.9497C163.553 20.1766 163.188 20.29 162.756 20.29Z" fill="white"/>
<defs>
<linearGradient id="paint0_linear_2625_16199" x1="0" y1="0" x2="36.1819" y2="5.76818" gradientUnits="userSpaceOnUse">
<stop stop-color="#FF4593"/>
<stop offset="0.286458" stop-color="#FFE713"/>
<stop offset="0.692708" stop-color="#17D7FF"/>
<stop offset="1" stop-color="#3795FF"/>
<stop offset="1" stop-color="#077BFF"/>
</linearGradient>
<clipPath id="clip0_2625_16199">
<rect width="32" height="32" rx="2.00182" fill="white"/>
</clipPath>
</defs>
</svg>
